<?xml version="1.0" encoding="UTF-8" standalone="no"?>
<!-- Created with Inkscape (http://www.inkscape.org/) -->

<svg
   width="239.35429mm"
   height="67.098846mm"
   viewBox="0 0 239.35429 67.098846"
   version="1.1"
   id="svg86121"
   xml:space="preserve"
   xmlns="http://www.w3.org/2000/svg"
   xmlns:svg="http://www.w3.org/2000/svg"><defs
     id="defs86118" /><g
     id="layer1"
     transform="translate(-47.741693,-54.424588)"><path
       style="fill:#90b4fe;fill-opacity:1;stroke:none;stroke-width:1;stroke-linejoin:bevel;stroke-dasharray:none;stroke-opacity:1"
       d="m 183.14259,84.789673 80.60779,-3.449975 c 2.23557,-9.54696 5.5067,-6.564883 12.51528,-6.623689 3.87674,-0.03253 9.59196,1.934873 10.83032,4.542685 0,0 -4.57017,0.850471 -6.97665,2.626992 -5.30962,3.919676 -9.67813,3.523188 -13.50375,1.642678 -17.83577,0.853793 -54.53446,4.445585 -83.40359,4.445585"
       id="path94484" /><path
       style="fill:#5881d8;fill-opacity:1;stroke:none;stroke-width:1;stroke-linejoin:bevel;stroke-dasharray:none;stroke-opacity:1"
       d="m 183.14259,84.789674 c 2.56571,-0.854782 12.07154,-1.013817 16.2519,-4.14077 8.27304,-6.188326 14.00386,-5.948635 21.62041,-4.173127 5.68145,1.324413 9.35758,5.557243 15.78658,2.819063 0,0 -6.67269,4.390188 -14.66757,2.053204 -7.99488,-2.336984 -12.50839,-2.473148 -20.96666,1.649181 -8.45827,4.122329 -17.98583,4.976725 -17.98583,4.976725"
       id="path88095" /><path
       style="fill:#90b4fe;fill-opacity:1;stroke:none;stroke-width:1;stroke-linejoin:bevel;stroke-dasharray:none;stroke-opacity:1"
       d="m 183.14259,84.789674 c 0,0 13.52405,-0.716355 18.80464,-6.110185 7.18425,-7.338318 6.45802,-9.157734 13.11075,-7.299847 6.65273,1.857887 10.83955,1.988804 15.31859,-5.965238 0,0 -2.25845,13.703042 -10.66217,10.761674 -6.26398,-2.192445 -11.6846,1.297919 -18.54715,6.821147 -4.48887,3.612809 -11.4136,2.678758 -17.95528,4.894636"
       id="path88087" /><path
       style="fill:#5881d8;fill-opacity:1;stroke:none;stroke-width:1;stroke-linejoin:bevel;stroke-dasharray:none;stroke-opacity:1"
       d="m 183.14259,84.789674 c 2.29857,-0.242122 4.61366,0.719316 6.97809,-0.915753 1.2554,-0.868147 13.70345,-3.179132 14.29047,-7.503009 0.94818,-6.984082 5.66448,-8.272655 9.73065,-9.429246 5.31815,-1.512711 6.01327,-7.009237 5.92209,-10.382515 0,0 4.58522,11.207736 -2.96467,13.548927 -7.54989,2.341192 -7.73384,6.662207 -11.97843,10.255225 -2.21692,1.876606 -5.38663,3.368531 -9.20247,4.693691 -1.66456,0.578065 -8.8942,0.03411 -12.70634,2.834866"
       id="path88091" /><path
       style="fill:#90b4fe;fill-opacity:1;stroke:none;stroke-width:1;stroke-linejoin:bevel;stroke-dasharray:none;stroke-opacity:1"
       d="m 164.4846,82.070574 c 0.19728,-0.132019 0.52916,-7.832934 9.52251,-4.061521 5.54226,2.32418 10.34995,5.281419 13.92368,5.273804 6.00647,-0.0128 14.52868,-4.000822 13.80666,-7.418324 -0.95017,-4.497367 -6.50274,-7.987738 1.72926,-13.330761 3.19855,-2.076037 2.78035,-8.109184 2.78035,-8.109184 4.08454,3.753667 4.6573,9.573036 -0.68839,12.045611 -4.74537,2.194907 0.86502,5.279411 1.2899,9.365072 0.38881,3.738749 -9.22179,12.138679 -19.0892,12.138679 h -23.27478"
       id="path88093" /><path
       style="fill:#90b4fe;fill-opacity:1;stroke:none;stroke-width:0.924456;stroke-linejoin:bevel;stroke-dasharray:none;stroke-opacity:1"
       d="m 47.741701,87.973949 c 0,0 12.195659,-5.000747 25.217333,-11.287096 7.297638,-3.52301 16.372193,-10.521913 22.11762,-11.202301 16.170536,-1.914957 18.235816,10.76268 18.235816,10.76268 0,0 9.88901,-10.598283 28.84531,-11.922773 10.58416,-0.739524 22.85598,9.913181 22.85598,9.913181 l 1e-5,7.832934 -1e-5,5.903376 H 47.74171"
       id="path93016" /><path
       style="fill:#91dc47;fill-opacity:1;stroke:none;stroke-width:0.924456;stroke-linejoin:bevel;stroke-dasharray:none;stroke-opacity:1"
       d="m 47.741693,87.973959 c 0,0 12.195658,5.00075 25.217333,11.2871 7.297638,3.523011 16.372192,10.521911 22.117619,11.202301 16.170535,1.91495 18.235815,-10.762681 18.235815,-10.762681 0,0 9.88901,10.598281 28.84531,11.922771 10.58416,0.73952 22.85598,-9.91318 22.85598,-9.91318 l 1e-5,-7.832931 V 87.97395 l -117.272059,-10e-7"
       id="path93018" /><path
       style="fill:#ffffff;fill-opacity:1;stroke:none;stroke-width:1;stroke-linejoin:bevel;stroke-dasharray:none;stroke-opacity:1"
       d="m 179.57419,80.426197 c 0,0 -4.84487,2.459788 -5.56708,-2.417144 z"
       id="path93350" /><path
       style="fill:#000000;fill-opacity:1;stroke:none;stroke-width:0.585548;stroke-linejoin:bevel;stroke-dasharray:none;stroke-opacity:1"
       d="m 178.26351,79.85164 c 0,0 -2.73575,1.52915 -3.15322,-1.363602 z"
       id="path93406" /><path
       style="fill:#ffffff;fill-opacity:1;stroke:none;stroke-width:1;stroke-linejoin:bevel;stroke-dasharray:none;stroke-opacity:1"
       d="m 178.9077,94.548018 c 0,0 -4.17838,-1.398037 -4.90059,3.478895 -0.72221,4.876947 0,0 0,0 z"
       id="path93408" /><path
       style="fill:#5881d8;fill-opacity:1;stroke:none;stroke-width:1;stroke-linejoin:bevel;stroke-dasharray:none;stroke-opacity:1"
       d="m 73.364379,87.998018 c 0,0 21.79049,-7.634361 33.155811,-8.047622 8.55437,-0.311051 17.55019,3.739513 39.67437,5.531941 7.56503,0.612894 26.22599,2.648145 26.15016,2.491613 z"
       id="path94411" /><circle
       style="fill:#5881d8;fill-opacity:1;stroke:none;stroke-width:0.742441;stroke-linejoin:bevel;stroke-dasharray:none;stroke-opacity:1"
       id="path94538"
       cx="-283.46976"
       cy="78.67395"
       r="0.89868754"
       transform="scale(-1,1)" /><circle
       style="fill:#5881d8;fill-opacity:1;stroke:none;stroke-width:0.742441;stroke-linejoin:bevel;stroke-dasharray:none;stroke-opacity:1"
       id="circle94729"
       cx="-280.29477"
       cy="78.144783"
       r="0.89868754"
       transform="scale(-1,1)" /><circle
       style="fill:#5881d8;fill-opacity:1;stroke:none;stroke-width:0.742441;stroke-linejoin:bevel;stroke-dasharray:none;stroke-opacity:1"
       id="circle94731"
       cx="-277.11975"
       cy="77.615616"
       r="0.89868754"
       transform="scale(-1,1)" /><circle
       style="fill:#5881d8;fill-opacity:1;stroke:none;stroke-width:0.742441;stroke-linejoin:bevel;stroke-dasharray:none;stroke-opacity:1"
       id="circle94733"
       cx="-273.94476"
       cy="77.086449"
       r="0.89868754"
       transform="scale(-1,1)" /><circle
       style="fill:#5881d8;fill-opacity:1;stroke:none;stroke-width:0.742441;stroke-linejoin:bevel;stroke-dasharray:none;stroke-opacity:1"
       id="circle94735"
       cx="-270.76974"
       cy="76.557281"
       r="0.89868754"
       transform="scale(-1,1)" /><circle
       style="fill:#5881d8;fill-opacity:1;stroke:none;stroke-width:0.742441;stroke-linejoin:bevel;stroke-dasharray:none;stroke-opacity:1"
       id="circle94737"
       cx="-278.1781"
       cy="80.261452"
       r="0.89868754"
       transform="scale(-1,1)" /><circle
       style="fill:#5881d8;fill-opacity:1;stroke:none;stroke-width:0.742441;stroke-linejoin:bevel;stroke-dasharray:none;stroke-opacity:1"
       id="circle94739"
       cx="-275.00308"
       cy="79.732285"
       r="0.89868754"
       transform="scale(-1,1)" /><circle
       style="fill:#5881d8;fill-opacity:1;stroke:none;stroke-width:0.742441;stroke-linejoin:bevel;stroke-dasharray:none;stroke-opacity:1"
       id="circle94741"
       cx="-271.82809"
       cy="79.203117"
       r="0.89868754"
       transform="scale(-1,1)" /><circle
       style="fill:#5881d8;fill-opacity:1;stroke:none;stroke-width:0.742441;stroke-linejoin:bevel;stroke-dasharray:none;stroke-opacity:1"
       id="circle94743"
       cx="-268.65308"
       cy="78.67395"
       r="0.89868754"
       transform="scale(-1,1)" /><circle
       style="fill:#5881d8;fill-opacity:1;stroke:none;stroke-width:0.742441;stroke-linejoin:bevel;stroke-dasharray:none;stroke-opacity:1"
       id="circle94747"
       cx="-272.88641"
       cy="81.848953"
       r="0.89868754"
       transform="scale(-1,1)" /><circle
       style="fill:#5881d8;fill-opacity:1;stroke:none;stroke-width:0.742441;stroke-linejoin:bevel;stroke-dasharray:none;stroke-opacity:1"
       id="circle94749"
       cx="-269.18225"
       cy="81.319786"
       r="0.89868754"
       transform="scale(-1,1)" /><circle
       style="fill:#5881d8;fill-opacity:1;stroke:none;stroke-width:0.742441;stroke-linejoin:bevel;stroke-dasharray:none;stroke-opacity:1"
       id="circle94751"
       cx="-266.00726"
       cy="80.790619"
       r="0.89868754"
       transform="scale(-1,1)" /><circle
       style="fill:#5881d8;fill-opacity:1;stroke:none;stroke-width:0.742441;stroke-linejoin:bevel;stroke-dasharray:none;stroke-opacity:1"
       id="circle94753"
       cx="-283.46976"
       cy="78.67395"
       r="0.89868754"
       transform="scale(-1,1)" /><circle
       style="fill:#5881d8;fill-opacity:1;stroke:none;stroke-width:0.742441;stroke-linejoin:bevel;stroke-dasharray:none;stroke-opacity:1"
       id="circle94757"
       cx="-225.80844"
       cy="72.783844"
       r="0.89868754"
       transform="scale(-1,1)" /><circle
       style="fill:#5881d8;fill-opacity:1;stroke:none;stroke-width:0.742441;stroke-linejoin:bevel;stroke-dasharray:none;stroke-opacity:1"
       id="circle94757-9"
       cx="-207.30205"
       cy="59.283703"
       r="0.89868754"
       transform="scale(-1,1)" /><circle
       style="fill:#5881d8;fill-opacity:1;stroke:none;stroke-width:0.742441;stroke-linejoin:bevel;stroke-dasharray:none;stroke-opacity:1"
       id="circle94759"
       cx="-221.5751"
       cy="74.371346"
       r="0.89868754"
       transform="scale(-1,1)" /><circle
       style="fill:#5881d8;fill-opacity:1;stroke:none;stroke-width:0.742441;stroke-linejoin:bevel;stroke-dasharray:none;stroke-opacity:1"
       id="circle94761"
       cx="-216.81259"
       cy="73.842178"
       r="0.89868754"
       transform="scale(-1,1)" /><circle
       style="fill:#5881d8;fill-opacity:1;stroke:none;stroke-width:0.742441;stroke-linejoin:bevel;stroke-dasharray:none;stroke-opacity:1"
       id="circle94877"
       cx="-212.05009"
       cy="74.371346"
       r="0.89868754"
       transform="scale(-1,1)" /><circle
       style="fill:#90b4fe;fill-opacity:1;stroke:none;stroke-width:0.742441;stroke-linejoin:bevel;stroke-dasharray:none;stroke-opacity:1"
       id="circle94879"
       cx="-225.80844"
       cy="80.192184"
       r="0.89868754"
       transform="scale(-1,1)" /><circle
       style="fill:#90b4fe;fill-opacity:1;stroke:none;stroke-width:0.742441;stroke-linejoin:bevel;stroke-dasharray:none;stroke-opacity:1"
       id="circle94891"
       cx="-221.5751"
       cy="79.13385"
       r="0.89868754"
       transform="scale(-1,1)" /><circle
       style="fill:#90b4fe;fill-opacity:1;stroke:none;stroke-width:0.742441;stroke-linejoin:bevel;stroke-dasharray:none;stroke-opacity:1"
       id="circle94893"
       cx="-216.81259"
       cy="78.075516"
       r="0.89868754"
       transform="scale(-1,1)" /><circle
       style="fill:#90b4fe;fill-opacity:1;stroke:none;stroke-width:0.742441;stroke-linejoin:bevel;stroke-dasharray:none;stroke-opacity:1"
       id="circle94895"
       cx="-212.05008"
       cy="78.075516"
       r="0.89868754"
       transform="scale(-1,1)" /><circle
       style="fill:#90b4fe;fill-opacity:1;stroke:none;stroke-width:0.742441;stroke-linejoin:bevel;stroke-dasharray:none;stroke-opacity:1"
       id="circle94897"
       cx="-225.80844"
       cy="80.192184"
       r="0.89868754"
       transform="scale(-1,1)" /><circle
       style="fill:#90b4fe;fill-opacity:1;stroke:none;stroke-width:0.742441;stroke-linejoin:bevel;stroke-dasharray:none;stroke-opacity:1"
       id="circle94897-7"
       cx="-219.72479"
       cy="64.770607"
       r="0.89868754"
       transform="scale(-1,1)" /><circle
       style="fill:#90b4fe;fill-opacity:1;stroke:none;stroke-width:0.742441;stroke-linejoin:bevel;stroke-dasharray:none;stroke-opacity:1"
       id="circle94921"
       cx="-217.07895"
       cy="67.94561"
       r="0.89868754"
       transform="scale(-1,1)" /><circle
       style="fill:#90b4fe;fill-opacity:1;stroke:none;stroke-width:0.742441;stroke-linejoin:bevel;stroke-dasharray:none;stroke-opacity:1"
       id="circle94927"
       cx="-212.84561"
       cy="69.533112"
       r="0.89868754"
       transform="scale(-1,1)" /><circle
       style="fill:#90b4fe;fill-opacity:1;stroke:none;stroke-width:0.742441;stroke-linejoin:bevel;stroke-dasharray:none;stroke-opacity:1"
       id="circle94929"
       cx="-209.14143"
       cy="72.178947"
       r="0.89868754"
       transform="scale(-1,1)" /><circle
       style="fill:#5881d8;fill-opacity:1;stroke:none;stroke-width:0.742441;stroke-linejoin:bevel;stroke-dasharray:none;stroke-opacity:1"
       id="circle94953"
       cx="-206.24368"
       cy="62.987869"
       r="0.89868754"
       transform="scale(-1,1)" /><circle
       style="fill:#5881d8;fill-opacity:1;stroke:none;stroke-width:0.742441;stroke-linejoin:bevel;stroke-dasharray:none;stroke-opacity:1"
       id="circle94955"
       cx="-203.06871"
       cy="65.633705"
       r="0.89868754"
       transform="scale(-1,1)" /><circle
       style="fill:#5881d8;fill-opacity:1;stroke:none;stroke-width:0.742441;stroke-linejoin:bevel;stroke-dasharray:none;stroke-opacity:1"
       id="circle94957"
       cx="-200.95201"
       cy="68.808708"
       r="0.89868754"
       transform="scale(-1,1)" /><circle
       style="fill:#5881d8;fill-opacity:1;stroke:none;stroke-width:0.742441;stroke-linejoin:bevel;stroke-dasharray:none;stroke-opacity:1"
       id="circle94959"
       cx="-203.06866"
       cy="71.983711"
       r="0.89868754"
       transform="scale(-1,1)" /><circle
       style="fill:#5881d8;fill-opacity:1;stroke:none;stroke-width:0.742441;stroke-linejoin:bevel;stroke-dasharray:none;stroke-opacity:1"
       id="circle94961"
       cx="-204.65623"
       cy="75.687881"
       r="0.89868754"
       transform="scale(-1,1)" /><circle
       style="fill:#5881d8;fill-opacity:1;stroke:none;stroke-width:0.742441;stroke-linejoin:bevel;stroke-dasharray:none;stroke-opacity:1"
       id="circle94963"
       cx="-203.06871"
       cy="79.392052"
       r="0.89868754"
       transform="scale(-1,1)" /><circle
       style="fill:#5881d8;fill-opacity:1;stroke:none;stroke-width:0.742441;stroke-linejoin:bevel;stroke-dasharray:none;stroke-opacity:1"
       id="circle94965"
       cx="-199.36449"
       cy="82.037888"
       r="0.89868754"
       transform="scale(-1,1)" /><path
       style="fill:#91dc47;fill-opacity:1;stroke:none;stroke-width:1;stroke-linejoin:bevel;stroke-dasharray:none;stroke-opacity:1"
       d="m 183.14258,91.15824 80.60779,3.449975 c 2.23557,9.546985 5.5067,6.564885 12.51528,6.623695 3.87674,0.0325 9.59196,-1.934879 10.83032,-4.542691 0,0 -4.57017,-0.850471 -6.97665,-2.626992 -5.30962,-3.919676 -9.67813,-3.523188 -13.50375,-1.642678 -17.83577,-0.853793 -54.53446,-4.445585 -83.40359,-4.445585"
       id="path94967" /><path
       style="fill:#63b132;fill-opacity:1;stroke:none;stroke-width:1;stroke-linejoin:bevel;stroke-dasharray:none;stroke-opacity:1"
       d="m 183.14258,91.158239 c 2.56571,0.854782 12.07154,1.013817 16.2519,4.14077 8.27304,6.188331 14.00386,5.948641 21.62041,4.173127 5.68145,-1.324413 9.35758,-5.557243 15.78658,-2.819063 0,0 -6.67269,-4.390188 -14.66757,-2.053204 -7.99488,2.336984 -12.50839,2.473148 -20.96666,-1.649181 -8.45827,-4.122329 -17.98583,-4.976725 -17.98583,-4.976725"
       id="path94969" /><path
       style="fill:#91dc47;fill-opacity:1;stroke:none;stroke-width:1;stroke-linejoin:bevel;stroke-dasharray:none;stroke-opacity:1"
       d="m 183.14258,91.158239 c 0,0 13.52405,0.716355 18.80464,6.110185 7.18425,7.338346 6.45802,9.157766 13.11075,7.299876 6.65273,-1.8579 10.83955,-1.98882 15.31859,5.96525 0,0 -2.25845,-13.703083 -10.66217,-10.761711 -6.26398,2.192451 -11.6846,-1.297923 -18.54715,-6.821151 -4.48887,-3.612809 -11.4136,-2.678758 -17.95528,-4.894636"
       id="path94971" /><path
       style="fill:#63b132;fill-opacity:1;stroke:none;stroke-width:1;stroke-linejoin:bevel;stroke-dasharray:none;stroke-opacity:1"
       d="m 183.14258,91.158239 c 2.29857,0.242122 4.61366,-0.719316 6.97809,0.915753 1.2554,0.868147 13.70345,3.179132 14.29047,7.503009 0.94818,6.984109 5.66448,8.272679 9.73065,9.429279 5.31815,1.51272 6.01327,7.00928 5.92209,10.38258 0,0 4.58522,-11.2078 -2.96467,-13.54899 -7.54989,-2.34121 -7.73384,-6.662242 -11.97843,-10.25526 -2.21692,-1.876606 -5.38663,-3.368531 -9.20247,-4.693691 -1.66456,-0.578065 -8.8942,-0.03411 -12.70634,-2.834866"
       id="path94973" /><path
       style="fill:#91dc47;fill-opacity:1;stroke:none;stroke-width:1;stroke-linejoin:bevel;stroke-dasharray:none;stroke-opacity:1"
       d="m 164.48459,93.877339 c 0.19728,0.132019 0.52916,7.832941 9.52251,4.061521 5.54226,-2.32418 10.34995,-5.281419 13.92368,-5.273804 6.00647,0.0128 14.52868,4.000822 13.80666,7.418324 -0.95017,4.49739 -6.50274,7.98777 1.72926,13.33082 3.19855,2.07605 2.78035,8.10923 2.78035,8.10923 4.08454,-3.75369 4.6573,-9.57309 -0.68839,-12.04568 -4.74537,-2.19492 0.86502,-5.27942 1.2899,-9.36511 0.38881,-3.738747 -9.22179,-12.138677 -19.0892,-12.138677 h -23.27478"
       id="path94975" /><path
       style="fill:#ffffff;fill-opacity:1;stroke:none;stroke-width:1;stroke-linejoin:bevel;stroke-dasharray:none;stroke-opacity:1"
       d="m 179.57418,95.521716 c 0,0 -4.84487,-2.459788 -5.56708,2.417144 z"
       id="path94977" /><path
       style="fill:#000000;fill-opacity:1;stroke:none;stroke-width:0.585548;stroke-linejoin:bevel;stroke-dasharray:none;stroke-opacity:1"
       d="m 178.2635,96.096273 c 0,0 -2.73575,-1.52915 -3.15322,1.363602 z"
       id="path94979" /><circle
       style="fill:#63b132;fill-opacity:1;stroke:none;stroke-width:0.742441;stroke-linejoin:bevel;stroke-dasharray:none;stroke-opacity:1"
       id="circle94981"
       cx="-283.46976"
       cy="-97.273972"
       r="0.89868754"
       transform="scale(-1)" /><circle
       style="fill:#63b132;fill-opacity:1;stroke:none;stroke-width:0.742441;stroke-linejoin:bevel;stroke-dasharray:none;stroke-opacity:1"
       id="circle94983"
       cx="-280.29477"
       cy="-97.803139"
       r="0.89868754"
       transform="scale(-1)" /><circle
       style="fill:#63b132;fill-opacity:1;stroke:none;stroke-width:0.742441;stroke-linejoin:bevel;stroke-dasharray:none;stroke-opacity:1"
       id="circle94985"
       cx="-277.11975"
       cy="-98.332306"
       r="0.89868754"
       transform="scale(-1)" /><circle
       style="fill:#63b132;fill-opacity:1;stroke:none;stroke-width:0.742441;stroke-linejoin:bevel;stroke-dasharray:none;stroke-opacity:1"
       id="circle94987"
       cx="-273.94476"
       cy="-98.861473"
       r="0.89868754"
       transform="scale(-1)" /><circle
       style="fill:#63b132;fill-opacity:1;stroke:none;stroke-width:0.742441;stroke-linejoin:bevel;stroke-dasharray:none;stroke-opacity:1"
       id="circle94989"
       cx="-270.76974"
       cy="-99.39064"
       r="0.89868754"
       transform="scale(-1)" /><circle
       style="fill:#63b132;fill-opacity:1;stroke:none;stroke-width:0.742441;stroke-linejoin:bevel;stroke-dasharray:none;stroke-opacity:1"
       id="circle94991"
       cx="-278.1781"
       cy="-95.68647"
       r="0.89868754"
       transform="scale(-1)" /><circle
       style="fill:#63b132;fill-opacity:1;stroke:none;stroke-width:0.742441;stroke-linejoin:bevel;stroke-dasharray:none;stroke-opacity:1"
       id="circle94993"
       cx="-275.00308"
       cy="-96.215637"
       r="0.89868754"
       transform="scale(-1)" /><circle
       style="fill:#63b132;fill-opacity:1;stroke:none;stroke-width:0.742441;stroke-linejoin:bevel;stroke-dasharray:none;stroke-opacity:1"
       id="circle94995"
       cx="-271.82809"
       cy="-96.744804"
       r="0.89868754"
       transform="scale(-1)" /><circle
       style="fill:#63b132;fill-opacity:1;stroke:none;stroke-width:0.742441;stroke-linejoin:bevel;stroke-dasharray:none;stroke-opacity:1"
       id="circle94997"
       cx="-268.65308"
       cy="-97.273972"
       r="0.89868754"
       transform="scale(-1)" /><circle
       style="fill:#63b132;fill-opacity:1;stroke:none;stroke-width:0.742441;stroke-linejoin:bevel;stroke-dasharray:none;stroke-opacity:1"
       id="circle94999"
       cx="-272.88641"
       cy="-94.098969"
       r="0.89868754"
       transform="scale(-1)" /><circle
       style="fill:#63b132;fill-opacity:1;stroke:none;stroke-width:0.742441;stroke-linejoin:bevel;stroke-dasharray:none;stroke-opacity:1"
       id="circle95001"
       cx="-269.18225"
       cy="-94.628136"
       r="0.89868754"
       transform="scale(-1)" /><circle
       style="fill:#63b132;fill-opacity:1;stroke:none;stroke-width:0.742441;stroke-linejoin:bevel;stroke-dasharray:none;stroke-opacity:1"
       id="circle95003"
       cx="-266.00723"
       cy="-95.157303"
       r="0.89868754"
       transform="scale(-1)" /><circle
       style="fill:#63b132;fill-opacity:1;stroke:none;stroke-width:0.742441;stroke-linejoin:bevel;stroke-dasharray:none;stroke-opacity:1"
       id="circle95005"
       cx="-283.46976"
       cy="-97.273972"
       r="0.89868754"
       transform="scale(-1)" /><circle
       style="fill:#63b132;fill-opacity:1;stroke:none;stroke-width:0.742441;stroke-linejoin:bevel;stroke-dasharray:none;stroke-opacity:1"
       id="circle95007"
       cx="-225.80843"
       cy="-103.16409"
       r="0.89868754"
       transform="scale(-1)" /><circle
       style="fill:#63b132;fill-opacity:1;stroke:none;stroke-width:0.742441;stroke-linejoin:bevel;stroke-dasharray:none;stroke-opacity:1"
       id="circle95009"
       cx="-207.30203"
       cy="-116.66419"
       r="0.89868754"
       transform="scale(-1)" /><circle
       style="fill:#63b132;fill-opacity:1;stroke:none;stroke-width:0.742441;stroke-linejoin:bevel;stroke-dasharray:none;stroke-opacity:1"
       id="circle95011"
       cx="-221.57509"
       cy="-101.57658"
       r="0.89868754"
       transform="scale(-1)" /><circle
       style="fill:#63b132;fill-opacity:1;stroke:none;stroke-width:0.742441;stroke-linejoin:bevel;stroke-dasharray:none;stroke-opacity:1"
       id="circle95013"
       cx="-216.81259"
       cy="-102.10577"
       r="0.89868754"
       transform="scale(-1)" /><circle
       style="fill:#63b132;fill-opacity:1;stroke:none;stroke-width:0.742441;stroke-linejoin:bevel;stroke-dasharray:none;stroke-opacity:1"
       id="circle95015"
       cx="-212.05008"
       cy="-101.57658"
       r="0.89868754"
       transform="scale(-1)" /><circle
       style="fill:#91dc47;fill-opacity:1;stroke:none;stroke-width:0.742441;stroke-linejoin:bevel;stroke-dasharray:none;stroke-opacity:1"
       id="circle95017"
       cx="-225.80843"
       cy="-95.755737"
       r="0.89868754"
       transform="scale(-1)" /><circle
       style="fill:#91dc47;fill-opacity:1;stroke:none;stroke-width:0.742441;stroke-linejoin:bevel;stroke-dasharray:none;stroke-opacity:1"
       id="circle95019"
       cx="-221.57509"
       cy="-96.814072"
       r="0.89868754"
       transform="scale(-1)" /><circle
       style="fill:#91dc47;fill-opacity:1;stroke:none;stroke-width:0.742441;stroke-linejoin:bevel;stroke-dasharray:none;stroke-opacity:1"
       id="circle95021"
       cx="-216.81259"
       cy="-97.872406"
       r="0.89868754"
       transform="scale(-1)" /><circle
       style="fill:#91dc47;fill-opacity:1;stroke:none;stroke-width:0.742441;stroke-linejoin:bevel;stroke-dasharray:none;stroke-opacity:1"
       id="circle95023"
       cx="-212.05006"
       cy="-97.872406"
       r="0.89868754"
       transform="scale(-1)" /><circle
       style="fill:#91dc47;fill-opacity:1;stroke:none;stroke-width:0.742441;stroke-linejoin:bevel;stroke-dasharray:none;stroke-opacity:1"
       id="circle95025"
       cx="-225.80843"
       cy="-95.755737"
       r="0.89868754"
       transform="scale(-1)" /><circle
       style="fill:#91dc47;fill-opacity:1;stroke:none;stroke-width:0.742441;stroke-linejoin:bevel;stroke-dasharray:none;stroke-opacity:1"
       id="circle95027"
       cx="-219.72478"
       cy="-111.17728"
       r="0.89868754"
       transform="scale(-1)" /><circle
       style="fill:#91dc47;fill-opacity:1;stroke:none;stroke-width:0.742441;stroke-linejoin:bevel;stroke-dasharray:none;stroke-opacity:1"
       id="circle95029"
       cx="-217.07895"
       cy="-108.00232"
       r="0.89868754"
       transform="scale(-1)" /><circle
       style="fill:#91dc47;fill-opacity:1;stroke:none;stroke-width:0.742441;stroke-linejoin:bevel;stroke-dasharray:none;stroke-opacity:1"
       id="circle95031"
       cx="-212.8456"
       cy="-106.4148"
       r="0.89868754"
       transform="scale(-1)" /><circle
       style="fill:#91dc47;fill-opacity:1;stroke:none;stroke-width:0.742441;stroke-linejoin:bevel;stroke-dasharray:none;stroke-opacity:1"
       id="circle95033"
       cx="-209.14143"
       cy="-103.76897"
       r="0.89868754"
       transform="scale(-1)" /><circle
       style="fill:#63b132;fill-opacity:1;stroke:none;stroke-width:0.742441;stroke-linejoin:bevel;stroke-dasharray:none;stroke-opacity:1"
       id="circle95035"
       cx="-206.24368"
       cy="-112.96003"
       r="0.89868754"
       transform="scale(-1)" /><circle
       style="fill:#63b132;fill-opacity:1;stroke:none;stroke-width:0.742441;stroke-linejoin:bevel;stroke-dasharray:none;stroke-opacity:1"
       id="circle95037"
       cx="-203.06871"
       cy="-110.31419"
       r="0.89868754"
       transform="scale(-1)" /><circle
       style="fill:#63b132;fill-opacity:1;stroke:none;stroke-width:0.742441;stroke-linejoin:bevel;stroke-dasharray:none;stroke-opacity:1"
       id="circle95039"
       cx="-200.95201"
       cy="-107.13924"
       r="0.89868754"
       transform="scale(-1)" /><circle
       style="fill:#63b132;fill-opacity:1;stroke:none;stroke-width:0.742441;stroke-linejoin:bevel;stroke-dasharray:none;stroke-opacity:1"
       id="circle95041"
       cx="-203.06866"
       cy="-103.9642"
       r="0.89868754"
       transform="scale(-1)" /><circle
       style="fill:#63b132;fill-opacity:1;stroke:none;stroke-width:0.742441;stroke-linejoin:bevel;stroke-dasharray:none;stroke-opacity:1"
       id="circle95043"
       cx="-204.65623"
       cy="-100.26003"
       r="0.89868754"
       transform="scale(-1)" /><circle
       style="fill:#63b132;fill-opacity:1;stroke:none;stroke-width:0.742441;stroke-linejoin:bevel;stroke-dasharray:none;stroke-opacity:1"
       id="circle95045"
       cx="-203.06871"
       cy="-96.55587"
       r="0.89868754"
       transform="scale(-1)" /><circle
       style="fill:#63b132;fill-opacity:1;stroke:none;stroke-width:0.742441;stroke-linejoin:bevel;stroke-dasharray:none;stroke-opacity:1"
       id="circle95047"
       cx="-199.36449"
       cy="-93.910034"
       r="0.89868754"
       transform="scale(-1)" /><path
       style="fill:#63b132;fill-opacity:1;stroke:none;stroke-width:1;stroke-linejoin:bevel;stroke-dasharray:none;stroke-opacity:1"
       d="m 73.364379,87.998018 c 0,0 21.79049,7.634361 33.155811,8.047622 8.55437,0.311051 17.55019,-3.739513 39.67437,-5.531941 7.56503,-0.612894 26.22599,-2.696281 26.15016,-2.539749 z"
       id="path94413" /></g></svg>
